<svg width="52" height="41" viewBox="0 0 52 41" fill="none" xmlns="http://www.w3.org/2000/svg">
<path fill-rule="evenodd" clip-rule="evenodd" d="M27.926 4.33654C27.6125 1.89025 25.5322 0 23.0128 0C20.4384 0 18.3226 1.97344 18.0814 4.49715H18.0587V28.8448H18.0521C18.0564 28.8977 18.0587 28.9512 18.0587 29.0053C18.0587 30.0697 17.2 30.9327 16.1409 30.9327C15.0818 30.9327 14.2232 30.0697 14.2232 29.0053C14.2232 28.9512 14.2254 28.8977 14.2297 28.8448H14.2232V17.3462C14.2232 14.5965 12.005 12.3672 9.26904 12.3672C6.53307 12.3672 4.31489 14.5965 4.31489 17.3462C4.31489 17.3999 4.31569 17.4535 4.31746 17.5068H4.31489V19.7554H0V22.8069H6.7111C6.79509 22.8072 6.87831 22.7906 6.95596 22.7585C7.03361 22.7263 7.10419 22.679 7.16366 22.6194C7.22311 22.5598 7.27029 22.489 7.3025 22.4109C7.33469 22.333 7.35127 22.2494 7.3513 22.1651V17.5068H7.35785C7.35348 17.4534 7.35129 17.3997 7.3513 17.3462C7.3513 16.2818 8.20997 15.4188 9.26904 15.4188C10.3281 15.4188 11.1868 16.2818 11.1868 17.3462C11.1868 17.4003 11.1845 17.4538 11.1802 17.5068H11.1868V29.0708C11.2216 31.7905 13.4265 33.9843 16.1409 33.9843C18.8768 33.9843 21.095 31.7551 21.095 29.0053C21.095 28.8925 21.0913 28.7805 21.0838 28.6694H21.095V5.1396H21.1016C21.0972 5.08618 21.095 5.03259 21.095 4.97898C21.095 3.91461 21.9537 3.05164 23.0128 3.05164C24.0718 3.05164 24.9305 3.91461 24.9305 4.97898C24.9305 5.03311 24.9282 5.0866 24.9239 5.1396H24.9305V40.7956H27.9669V4.33654H27.926ZM41.0665 25.3767C40.9486 28.0216 38.7779 30.1296 36.1172 30.1296C33.3813 30.1296 31.1631 27.9003 31.1631 25.1507C31.1631 25.1189 31.1635 25.0872 31.1641 25.0556L31.1631 6.42451H34.1995V24.9901H34.2061C34.2018 25.043 34.1995 25.0966 34.1995 25.1507C34.1995 26.2151 35.0582 27.078 36.1172 27.078C37.1763 27.078 38.035 26.2151 38.035 25.1507C38.035 25.0966 38.0328 25.043 38.0284 24.9901H38.035V17.0249H38.0451C38.2098 14.4248 40.3604 12.3672 42.9891 12.3672C45.6717 12.3672 47.8563 14.51 47.9407 17.1855H47.9433V18.7917H51.7787V21.8433H45.547C45.463 21.8433 45.3798 21.8268 45.3022 21.7945C45.2245 21.7622 45.1539 21.7149 45.0945 21.6552C45.035 21.5955 44.9879 21.5247 44.9557 21.4466C44.9235 21.3686 44.9069 21.285 44.9069 21.2005V17.5068H44.9003C44.9047 17.4538 44.9069 17.4003 44.9069 17.3462C44.9069 16.2818 44.0482 15.4188 42.9891 15.4188C41.93 15.4188 41.0714 16.2818 41.0714 17.3462C41.0714 17.4003 41.0736 17.4538 41.0779 17.5068H41.0714V25.3767H41.0665Z" fill="#FF5439"/>
</svg>
